<svg width="328" height="328" viewBox="0 0 328 328" fill="none" xmlns="http://www.w3.org/2000/svg">
<path d="M6.84473 175.855C2.60919 168.519 2.6092 159.481 6.84473 152.145L75.1553 33.8272C79.3908 26.4911 87.2184 21.9718 95.6895 21.9718L232.311 21.9718C240.782 21.9718 248.609 26.4911 252.845 33.8272L321.155 152.145C325.391 159.481 325.391 168.519 321.155 175.855L252.845 294.173C248.609 301.509 240.782 306.028 232.311 306.028L95.6894 306.028C87.2184 306.028 79.3908 301.509 75.1553 294.173L6.84473 175.855Z" fill="#133B51"/>
<circle cx="134.855" cy="223.771" r="7.40964" fill="white"/>
<circle cx="66.686" cy="137.82" r="7.40964" fill="white"/>
<circle cx="175.854" cy="113.614" r="4.93976" fill="white"/>
<circle cx="207.47" cy="140.289" r="4.93976" fill="white"/>
<circle cx="188.205" cy="87.4332" r="7.40964" fill="white"/>
<circle cx="230.686" cy="117.073" r="7.40964" fill="white"/>
<circle cx="200.061" cy="229.698" r="7.40964" fill="white"/>
<path d="M74.0966 119.394C74.0966 119.394 84.0125 103.463 93.2442 96.2015C108.139 84.4858 120.508 83.0292 139.36 81.0992C157.156 79.2775 168.281 79.1572 184.937 85.6839" stroke="white" stroke-width="3.95181"/>
<path d="M148.688 191.729C148.688 191.729 194.627 202.53 222.448 191.729C250.268 180.929 253.542 169.629 251.843 149.659C250.145 129.688 230.538 117.566 230.538 117.566" stroke="white" stroke-width="3.95181"/>
<path d="M96.3261 176.35C84.9646 172.892 79.2811 177.686 71.2657 168.541C65.4044 161.853 60.2681 156.539 61.8794 147.794C62.5979 143.894 66.1991 138.604 66.1991 138.604" stroke="white" stroke-width="3.95181"/>
<path d="M195.488 263.646C195.488 263.646 183.877 229.761 165.283 223.732C155.265 220.484 138.315 223.732 138.315 223.732" stroke="white" stroke-width="3.95181"/>
<path d="M198.824 230.678C198.824 230.678 219.621 234.764 228.836 227.64C236.335 221.843 230.83 209.496 239.656 205.922C243.433 204.393 246.273 206.253 250.107 204.864C258.901 201.68 262.136 194.673 263.94 185.51C265.332 178.44 261.603 167.065 261.603 167.065" stroke="white" stroke-width="3.95181"/>
<path d="M101.264 186.722C101.264 186.722 107.619 211.001 120.743 208.741C133.867 206.481 202.53 110.65 202.53 110.65" stroke="white" stroke-width="4.93976"/>
<path d="M168.445 145.722C168.445 145.722 161.035 135.843 168.445 130.409C175.856 124.975 175.855 115.096 175.855 115.096" stroke="white" stroke-width="4.84346"/>
<path d="M178.306 153.774C178.306 153.774 187.748 159.253 191.799 151.005C195.85 142.757 205.577 141.027 205.577 141.027" stroke="white" stroke-width="4.84346"/>
</svg>